<svg width="24" height="22" viewBox="0 0 24 22" fill="none" xmlns="http://www.w3.org/2000/svg">
<path d="M1.98457 0.259902C1.70332 0.405215 1.58613 0.616152 1.55801 1.03334L1.53926 1.37553L1.34238 1.43178C0.812695 1.58646 0.325195 2.01771 0.137695 2.50053C0.0533196 2.70678 0.0298821 2.86146 0.0251945 3.18959C0.0251945 3.56459 0.0439446 3.64428 0.170507 3.91615C0.33457 4.25834 0.59707 4.55365 0.901757 4.72709C1.23457 4.92865 1.59551 4.99428 2.30332 4.99428C2.81426 4.99428 2.96426 5.00834 3.02051 5.06459C3.14238 5.19115 3.15644 5.32709 3.05801 5.45834L2.96894 5.58021L1.72207 5.60365C0.35332 5.62709 0.362695 5.62709 0.123632 5.95053C-0.0123055 6.13334 -0.0123055 6.57396 0.123632 6.75678C0.33457 7.04271 0.433007 7.08021 1.01426 7.09428L1.54863 7.11303V7.38021C1.54863 7.70834 1.69394 8.0224 1.91894 8.16771C2.12988 8.30834 2.48144 8.31303 2.69707 8.18178C2.94082 8.03178 3.02051 7.8724 3.04863 7.4599L3.07207 7.08959L3.28769 7.03803C3.78457 6.91146 4.31894 6.43334 4.50644 5.94115C4.64238 5.5849 4.64707 5.0224 4.51582 4.6849C4.30019 4.13646 3.89238 3.7474 3.37207 3.58334C3.14707 3.51303 2.94082 3.49428 2.41582 3.49428C1.81113 3.49428 1.73613 3.4849 1.62363 3.39584C1.48769 3.28803 1.46894 3.14271 1.57207 2.99271C1.64238 2.89428 1.67519 2.88959 2.85176 2.87553C4.17363 2.86146 4.22519 2.85209 4.46894 2.56146C4.64707 2.34584 4.67519 2.08803 4.53926 1.82084C4.36113 1.46459 4.25332 1.41303 3.62051 1.3849L3.07207 1.36146L3.04863 1.00053C3.02988 0.738027 3.00176 0.606777 2.92676 0.513027C2.68301 0.184902 2.32207 0.0911524 1.98457 0.259902Z" fill="#363062" fill-opacity="0.7"/>
<path d="M15.7518 1.01459C15.5221 1.06147 15.2549 1.36147 15.2127 1.61459C15.1471 1.99897 15.508 2.46303 15.8736 2.46303C15.9627 2.46303 16.033 2.47709 16.033 2.49584C16.0283 2.51928 13.4643 4.38022 10.333 6.6349C7.19707 8.88959 4.59082 10.788 4.54394 10.849C4.29551 11.1583 4.33769 11.5802 4.63769 11.8521C4.89082 12.0818 5.13926 12.1193 5.42988 11.9693C5.55176 11.9083 8.18145 10.0333 11.2752 7.80209C14.3689 5.57084 16.9236 3.73334 16.9471 3.71928C16.9799 3.69584 16.9939 3.78959 16.9799 3.98647C16.9564 4.35209 17.0689 4.5724 17.3502 4.71303C17.6924 4.89115 18.133 4.77865 18.3205 4.46928C18.3674 4.3849 18.5408 3.78022 18.7049 3.12865C19.0189 1.85834 19.0377 1.63334 18.8596 1.38959C18.6627 1.12709 18.5361 1.09428 17.5893 1.05209C17.1064 1.03334 16.5346 1.00522 16.3143 0.995841C16.0939 0.986466 15.8408 0.995841 15.7518 1.01459Z" fill="#363062" fill-opacity="0.7"/>
<path d="M17.1721 6.21771C17.0596 6.27396 16.9283 6.39115 16.8674 6.4849L16.7596 6.65834L16.7361 20.3224H15.283V15.7474C15.283 10.6568 15.3018 10.9802 14.9643 10.7224L14.8002 10.5958L13.0143 10.5818C10.9705 10.5677 10.9236 10.5724 10.6986 10.9146L10.5721 11.1068L10.558 15.7146L10.5486 20.3224H9.09551V17.2521C9.09551 14.2849 9.09082 14.1724 9.00176 13.999C8.9502 13.8958 8.83301 13.7646 8.73457 13.7083C8.55644 13.5958 8.54707 13.5958 6.84551 13.5818C5.62676 13.5724 5.07832 13.5818 4.93301 13.624C4.69863 13.6896 4.48301 13.9146 4.41269 14.1677C4.37988 14.2849 4.36113 15.3958 4.36113 17.3318V20.3224H3.04863V15.3537C3.04863 9.90209 3.06738 10.2443 2.76738 9.99584C2.44863 9.72396 1.90957 9.81771 1.67988 10.188L1.57207 10.3615V21.288L1.68926 21.4615C1.75488 21.5599 1.89082 21.6771 1.99863 21.7287C2.18613 21.8224 2.30801 21.8224 12.7799 21.8224C23.0033 21.8224 23.3736 21.8177 23.5611 21.7333C23.8471 21.6021 23.9783 21.3912 23.9783 21.063C23.9783 20.7677 23.8893 20.6083 23.6268 20.4302C23.4768 20.3271 23.4299 20.3224 22.4736 20.3224H21.4705V6.70521L21.3627 6.51771C21.2971 6.39584 21.1893 6.29271 21.0486 6.2224C20.8471 6.11928 20.8143 6.11928 19.1033 6.11928C17.4393 6.11928 17.3596 6.12396 17.1721 6.21771ZM19.9705 20.3224L19.1174 20.313L18.2596 20.299L18.2361 7.61928H19.9705V20.3224ZM13.783 20.3224L12.9299 20.313L12.0721 20.299L12.058 16.1833L12.0486 12.0724H13.783V20.3224ZM7.59551 20.3224L6.74238 20.313L5.88457 20.299L5.87051 17.7443C5.86582 16.338 5.87051 15.1615 5.88457 15.1287C5.89863 15.0865 6.11894 15.0724 6.75176 15.0724H7.59551V20.3224Z" fill="#363062" fill-opacity="0.7"/>
</svg>
