<svg width="24" height="24" viewBox="0 0 24 24" fill="none" xmlns="http://www.w3.org/2000/svg">
<path d="M11.7392 4.0312C10.4713 4.17521 9.33802 4.56027 8.30179 5.20205C6.37021 6.3948 4.98649 8.52361 4.63273 10.8434C4.56073 11.3192 4.53881 12.1864 4.58264 12.6904C4.84248 15.5518 6.4923 17.9498 9.07818 19.2209C9.8577 19.6028 10.5089 19.8063 11.3792 19.944C11.8801 20.0192 13.029 20.0192 13.5549 19.9409C16.1627 19.5558 18.279 18.1972 19.3184 16.2437C19.4686 15.965 19.4686 15.965 19.3778 16.0245C18.758 16.4378 18.3354 16.6882 17.9534 16.8635C15.7871 17.8497 13.6708 17.6556 11.5983 16.275C9.39437 14.8067 8.42701 12.6372 8.81208 10.0106C9.17523 7.52808 10.4901 5.79999 12.7159 4.87646C13.2294 4.66358 14.0746 4.41 14.5035 4.34426C14.5786 4.33174 14.6287 4.31296 14.6131 4.2973C14.5724 4.25974 14.1184 4.15017 13.6958 4.08129C13.1887 3.99677 12.262 3.97485 11.7392 4.0312Z" fill="#363062"/>
<path d="M16.5196 5.42117C16.4883 5.45247 16.3036 5.76866 16.1095 6.12555C15.8465 6.6108 15.7401 6.77672 15.69 6.78924C15.6524 6.79863 15.3112 6.86124 14.9324 6.93012C14.3501 7.03343 14.2343 7.06473 14.1873 7.12108C14.156 7.16178 14.1404 7.215 14.1498 7.2557C14.1591 7.29327 14.4159 7.55937 14.7164 7.85364C15.1422 8.26688 15.2611 8.40463 15.2611 8.46411C15.2611 8.50794 15.211 8.83039 15.1515 9.18415C15.0201 9.95427 15.0169 10.0388 15.1108 10.1045C15.1484 10.1327 15.2016 10.1546 15.2235 10.1546C15.2486 10.1546 15.5742 10.0231 15.953 9.86036L16.6386 9.56608L17.3242 9.86036C17.703 10.0231 18.038 10.1546 18.0755 10.1546C18.11 10.1546 18.1632 10.1171 18.1945 10.0732C18.2446 9.99497 18.2414 9.96367 18.1006 9.26554C18.0192 8.86796 17.944 8.5142 17.9346 8.47663C17.919 8.42341 18.016 8.3201 18.4762 7.9006C18.783 7.61885 19.0585 7.34962 19.093 7.29953C19.2151 7.11169 19.1118 7.0616 18.2821 6.91446C17.9378 6.85498 17.6278 6.79863 17.5903 6.78924C17.5402 6.77985 17.4306 6.6014 17.1739 6.12555C16.9798 5.76553 16.792 5.44934 16.7575 5.41804C16.6761 5.34916 16.5916 5.34916 16.5196 5.42117Z" fill="#363062"/>
<path d="M14.7571 12.3054C14.732 12.3336 14.6005 12.5621 14.4628 12.8126L14.2123 13.2665L13.7177 13.3573C13.4453 13.4043 13.1886 13.4575 13.1448 13.4731C12.9914 13.5326 13.0446 13.6265 13.4704 14.0429L13.8742 14.4374L13.7835 14.979C13.7365 15.2795 13.7021 15.555 13.7114 15.5926C13.7428 15.7209 13.8335 15.7084 14.3376 15.4955C14.6037 15.3828 14.8416 15.2889 14.8635 15.2889C14.8886 15.2889 15.0952 15.3703 15.3268 15.4705C15.8434 15.6959 15.8997 15.7115 15.9623 15.6489C16.0156 15.5926 16.0187 15.6207 15.8841 14.957C15.834 14.7129 15.7933 14.4906 15.7933 14.4655C15.7933 14.4405 15.978 14.2527 16.2003 14.046C16.6135 13.6735 16.6949 13.5608 16.5979 13.4888C16.5697 13.47 16.3255 13.4137 16.0531 13.3636C15.7808 13.3166 15.5428 13.2696 15.5209 13.2634C15.5022 13.254 15.3769 13.0505 15.2454 12.8063C15.1108 12.5621 14.9825 12.3367 14.9543 12.3054C14.8948 12.2366 14.8134 12.2366 14.7571 12.3054Z" fill="#363062"/>
</svg>
