<svg width="22" height="22" viewBox="0 0 22 22" fill="none" xmlns="http://www.w3.org/2000/svg">
<path d="M4.24818 0.0171792C3.69037 0.0406167 3.01068 0.129679 2.60755 0.223429C1.33255 0.532804 0.526305 1.33905 0.221617 2.60937C-0.0502578 3.7578 -0.0783828 6.11093 0.165367 7.37655C0.484117 9.01718 1.32318 9.82343 3.05287 10.1375C3.62005 10.2406 5.80912 10.2828 6.62006 10.2078C8.94974 9.98749 9.92006 9.04999 10.1872 6.78124C10.281 5.94687 10.2529 3.69218 10.1357 3.05468C9.81693 1.30155 8.99662 0.462492 7.29974 0.148429C6.62006 0.0265542 5.31693 -0.0343833 4.24818 0.0171792ZM7.08412 1.59218C7.83881 1.75624 8.17162 1.9578 8.40599 2.4078C8.71068 2.98437 8.81849 3.91249 8.78099 5.53905C8.71068 8.32812 8.32631 8.71249 5.53724 8.7828C3.91068 8.8203 2.98255 8.71249 2.40599 8.4078C1.95131 8.16874 1.75443 7.8453 1.58568 7.06249C1.46849 6.51874 1.47318 3.78124 1.59037 3.1953C1.82005 2.05624 2.25131 1.69999 3.60599 1.53124C4.14505 1.46562 6.69506 1.5078 7.08412 1.59218Z" fill="#363062" fill-opacity="0.7"/>
<path d="M15.7091 0.0359292C13.2904 0.185929 12.2357 1.01093 11.8607 3.05468C11.7576 3.61718 11.7154 5.81093 11.7904 6.62655C12.0154 8.98905 13.0091 9.9828 15.3763 10.2078C16.1872 10.2828 18.3763 10.2406 18.9435 10.1375C20.6732 9.82343 21.5122 9.01718 21.831 7.37655C22.0232 6.3828 22.0513 4.52655 21.8919 3.27499C21.6576 1.42343 20.7669 0.453117 19.0326 0.148429C18.2029 0.00311673 16.9279 -0.0390708 15.7091 0.0359292ZM18.8216 1.59687C19.8341 1.80312 20.181 2.15468 20.4107 3.21874C20.5232 3.72968 20.5232 6.54687 20.4107 7.06249C20.2419 7.8453 20.0451 8.16874 19.5904 8.4078C19.0138 8.71249 18.0857 8.8203 16.4591 8.7828C14.0919 8.72655 13.581 8.42655 13.3091 6.95468C13.206 6.41562 13.1919 4.02499 13.2857 3.42968C13.4216 2.5578 13.6794 2.07968 14.1388 1.84999C14.7247 1.55468 15.2779 1.48905 17.0451 1.50312C18.1279 1.51718 18.5122 1.53593 18.8216 1.59687Z" fill="#363062" fill-opacity="0.7"/>
<path d="M3.68568 11.7828C1.52005 11.9984 0.51693 12.8047 0.165367 14.6234C-0.0268203 15.6172 -0.0549453 17.4781 0.10443 18.725C0.31068 20.3422 1.00443 21.2703 2.31224 21.6875C3.39505 22.0344 5.95443 22.1094 7.37474 21.8328C9.01537 21.5141 9.82162 20.675 10.1357 18.9453C10.2388 18.3781 10.281 16.1891 10.206 15.3781C9.98568 13.0391 9.0013 12.0312 6.7138 11.8016C6.24974 11.7547 4.09349 11.7406 3.68568 11.7828ZM6.9763 13.3156C8.42005 13.5781 8.72474 14.1078 8.78099 16.4609C8.81849 18.0875 8.71068 19.0156 8.40599 19.5922C8.16693 20.0469 7.84349 20.2437 7.06068 20.4125C6.54505 20.525 3.72787 20.525 3.21693 20.4125C2.14818 20.1828 1.8013 19.8359 1.59037 18.8C1.47318 18.2187 1.46849 15.4812 1.58568 14.9375C1.84349 13.7469 2.29349 13.3953 3.75599 13.25C4.41693 13.1844 6.49349 13.2266 6.9763 13.3156Z" fill="#363062" fill-opacity="0.7"/>
<path d="M15.2029 11.8016C14.6029 11.8672 13.9372 12.05 13.4872 12.2703C12.4794 12.7672 11.9451 13.7422 11.7904 15.3734C11.7154 16.1891 11.7576 18.3828 11.8607 18.9453C12.1794 20.675 12.981 21.5141 14.6216 21.8328C15.6154 22.025 17.4716 22.0531 18.7232 21.8937C20.3404 21.6875 21.2638 20.9984 21.6857 19.6859C21.9435 18.8844 22.0607 17.3281 21.9716 15.8891C21.8451 13.8359 21.381 12.8609 20.2466 12.2797C19.8435 12.0687 19.5669 11.9797 18.9669 11.8672C18.4888 11.7734 15.8685 11.7312 15.2029 11.8016ZM18.6154 13.2969C20.2419 13.5453 20.5607 14.2109 20.4997 17.2203C20.4716 18.5328 20.4341 18.875 20.2279 19.4094C20.0919 19.7844 19.7826 20.0937 19.4076 20.2297C18.8732 20.4359 18.531 20.4734 17.2185 20.5016C14.2091 20.5625 13.5388 20.2391 13.2951 18.6172C13.2669 18.4344 13.2294 17.8344 13.2154 17.2812C13.1732 15.7672 13.2951 14.6891 13.5716 14.15C13.8388 13.625 14.3966 13.3672 15.4982 13.25C16.0091 13.1984 18.1888 13.2266 18.6154 13.2969Z" fill="#363062" fill-opacity="0.7"/>
</svg>
