<svg width="24" height="24" viewBox="0 0 24 24" fill="none" xmlns="http://www.w3.org/2000/svg">
<path d="M17.0692 0.0679386C15.8528 0.260853 14.6471 0.887823 13.7468 1.79345C13.3556 2.18463 12.8626 2.86519 12.6697 3.27246C12.6161 3.38499 12.5572 3.47609 12.5304 3.47609C12.5089 3.47609 12.032 3.27246 11.4801 3.0206C10.8477 2.73658 10.403 2.5651 10.2851 2.5651C10.0761 2.5651 0.489329 6.89495 0.27498 7.08787C-0.00903198 7.33973 0.00168547 7.1093 0.00168547 13.2826C0.00168547 19.4558 -0.00903198 19.2254 0.27498 19.4772C0.489329 19.6755 10.0761 24 10.2904 24C10.5048 24 20.0915 19.6755 20.3059 19.4772C20.5845 19.2254 20.5792 19.3004 20.5792 15.2117V11.407L20.8364 11.2784C21.8706 10.7479 22.8834 9.68149 23.4193 8.55616C24.6089 6.04827 23.923 3.04739 21.7527 1.31652C20.4506 0.27157 18.7197 -0.183921 17.0692 0.0679386ZM19.0252 1.83096C20.1344 2.13641 20.9972 2.75266 21.6027 3.67972C22.0743 4.39779 22.2672 5.06227 22.2672 5.99469C22.2672 7.20576 21.8653 8.18105 21.0293 9.01701C19.3681 10.6782 16.678 10.6889 15.0115 9.0438C14.1487 8.19176 13.7468 7.22183 13.7468 5.99469C13.7468 5.06227 13.9397 4.40315 14.4167 3.669C15.049 2.70443 16.0403 2.02923 17.2032 1.78273C17.6319 1.69163 18.6072 1.71843 19.0252 1.83096ZM11.1853 4.7729L12.032 5.15337V5.96253C12.032 6.41803 12.0642 6.91103 12.1017 7.09323C12.2839 7.92919 12.6215 8.733 13.0555 9.35997L13.2913 9.69757L13.0609 9.79402C12.9376 9.84761 12.2678 10.1531 11.5765 10.4692C10.5101 10.9569 10.2958 11.0372 10.1833 10.9944C9.82959 10.8604 3.00257 7.73627 3.00257 7.70948C3.00257 7.67197 10.1779 4.39779 10.2744 4.39243C10.3065 4.38707 10.7138 4.55855 11.1853 4.7729ZM5.61763 10.8175L9.43304 12.5484V17.1783C9.43304 19.7237 9.41696 21.7976 9.39553 21.7868C9.36874 21.7761 7.63251 20.983 5.53725 20.0345L1.71648 18.3037V13.6737C1.71648 11.1283 1.73255 9.05452 1.75935 9.06524C1.78078 9.07595 3.51701 9.86369 5.61763 10.8175ZM14.8507 11.0908C15.1294 11.2891 15.9921 11.6642 16.4155 11.7768C17.0692 11.9482 17.7069 12.0125 18.3178 11.975L18.8644 11.9429V18.3037L15.049 20.0345C12.9484 20.9884 11.2121 21.7761 11.1907 21.7868C11.1639 21.7976 11.1478 19.7237 11.1478 17.1783V12.5484L12.8519 11.7714C13.7843 11.3427 14.5828 10.989 14.6203 10.9837C14.6632 10.9783 14.765 11.0265 14.8507 11.0908Z" fill="#363062" fill-opacity="0.7"/>
<path d="M17.6587 2.64013C17.4604 2.73123 17.2836 2.91878 17.2085 3.11705C17.1764 3.20279 17.1496 3.669 17.1496 4.19952V5.13193L16.1368 5.14801C15.0275 5.16409 14.9793 5.18016 14.7167 5.53384C14.5613 5.74283 14.5613 6.24655 14.7167 6.45554C14.9793 6.80921 15.0275 6.82529 16.1314 6.84137L17.1442 6.85744L17.1603 7.87024C17.1764 8.97414 17.1925 9.02237 17.5461 9.28494C17.7551 9.44035 18.2589 9.44035 18.4678 9.28494C18.8215 9.02237 18.8376 8.97414 18.8537 7.87024L18.8698 6.85744L19.8826 6.84137C20.9864 6.82529 21.0347 6.80921 21.2973 6.45554C21.4527 6.24655 21.4527 5.74283 21.2973 5.53384C21.0347 5.18016 20.9864 5.16409 19.8826 5.14801L18.8698 5.13193L18.8537 4.11913C18.8376 3.01524 18.8215 2.96701 18.4786 2.70979C18.2964 2.57582 17.873 2.53831 17.6587 2.64013Z" fill="#363062" fill-opacity="0.7"/>
</svg>
