<svg width="40" height="40" viewBox="0 0 40 40" fill="none" xmlns="http://www.w3.org/2000/svg">
<rect width="40" height="40" rx="10" fill="#F99417"/>
<path d="M32 30.5879L25.7463 24.3342C27.3708 22.3475 28.1695 19.8123 27.9772 17.2532C27.7849 14.6941 26.6164 12.3068 24.7133 10.5851C22.8102 8.86337 20.3182 7.93898 17.7526 8.00313C15.1871 8.06727 12.7444 9.11504 10.9297 10.9297C9.11504 12.7444 8.06727 15.1871 8.00313 17.7526C7.93898 20.3182 8.86337 22.8102 10.5851 24.7133C12.3068 26.6164 14.6941 27.7849 17.2532 27.9772C19.8123 28.1695 22.3475 27.3708 24.3342 25.7463L30.5879 32L32 30.5879ZM18.0186 26.008C16.4385 26.008 14.8938 25.5394 13.58 24.6615C12.2662 23.7837 11.2421 22.5359 10.6375 21.076C10.0328 19.6162 9.87454 18.0098 10.1828 16.46C10.4911 14.9102 11.252 13.4867 12.3693 12.3693C13.4867 11.252 14.9102 10.4911 16.46 10.1828C18.0098 9.87454 19.6162 10.0328 21.076 10.6375C22.5359 11.2421 23.7837 12.2662 24.6615 13.58C25.5394 14.8938 26.008 16.4385 26.008 18.0186C26.0056 20.1368 25.1631 22.1676 23.6653 23.6653C22.1676 25.1631 20.1368 26.0056 18.0186 26.008Z" fill="#F5F5F5"/>
</svg>
