<svg width="24" height="24" viewBox="0 0 24 24" fill="none" xmlns="http://www.w3.org/2000/svg">
<path d="M11.8286 4.01539C11.5761 4.09729 11.4226 4.23037 11.3339 4.4351C11.2588 4.62278 11.2588 6.28115 11.3339 6.46882C11.5523 6.98749 12.2654 7.05573 12.5964 6.58484L12.6988 6.4347L12.709 5.52703C12.7227 4.55112 12.709 4.4351 12.5555 4.25766C12.3917 4.06316 12.0402 3.94715 11.8286 4.01539Z" fill="#363062"/>
<path d="M6.55667 6.2163C6.35535 6.30844 6.29392 6.37327 6.20179 6.57801C6.11307 6.77251 6.11307 6.96359 6.20179 7.15809C6.29051 7.356 7.34832 8.42746 7.54964 8.523C8.00689 8.7448 8.54262 8.44452 8.58015 7.94633C8.60404 7.60169 8.5665 7.54368 7.92841 6.89193C7.15723 6.11735 6.96956 6.0218 6.55667 6.2163Z" fill="#363062"/>
<path d="M16.8242 6.21974C16.6365 6.31528 15.5651 7.36968 15.473 7.55053C15.3228 7.84398 15.3774 8.15109 15.6163 8.38995C15.7459 8.51961 15.8108 8.55715 15.9609 8.58786C16.1725 8.62881 16.3397 8.60151 16.5103 8.49573C16.7184 8.36606 17.7217 7.3219 17.7967 7.15811C17.8889 6.95679 17.8854 6.76911 17.7865 6.56097C17.6944 6.35964 17.6295 6.29822 17.4248 6.20609C17.2166 6.11055 17.0324 6.11737 16.8242 6.21974Z" fill="#363062"/>
<path d="M11.5216 7.65632C10.2351 7.82011 9.09201 8.5128 8.38908 9.55355C7.27668 11.2017 7.40976 13.3855 8.71325 14.8699C10.4023 16.791 13.3403 16.8763 15.1113 15.0473C15.7801 14.358 16.1793 13.5596 16.3124 12.6485C16.5171 11.2563 16.0735 9.92549 15.0737 8.9291C14.4425 8.29783 13.7771 7.9293 12.9206 7.7348C12.6374 7.66997 11.7911 7.6222 11.5216 7.65632ZM12.5794 9.15431C13.5314 9.35563 14.3572 10.0449 14.695 10.9219C14.8417 11.2938 14.8997 11.6146 14.8997 12.0138C14.8963 12.8123 14.6165 13.4845 14.0501 14.0543C13.4802 14.6208 12.808 14.9006 12.0095 14.904C11.0165 14.904 10.1328 14.4365 9.58679 13.6176C9.2558 13.1194 9.09884 12.6007 9.09884 12.0036C9.09884 11.2017 9.38206 10.5226 9.94849 9.95278C10.3648 9.5399 10.8357 9.27715 11.3953 9.15772C11.6853 9.09289 12.2825 9.09289 12.5794 9.15431Z" fill="#363062"/>
<path d="M4.424 11.3415C3.94287 11.5497 3.85074 12.2219 4.25339 12.5597C4.43083 12.7133 4.54685 12.7269 5.52276 12.7133L6.43042 12.703L6.58056 12.6007C7.05146 12.2697 6.98321 11.5565 6.46455 11.3381C6.28028 11.2631 4.60144 11.2631 4.424 11.3415Z" fill="#363062"/>
<path d="M17.5272 11.3415C17.046 11.5497 16.9539 12.2219 17.3565 12.5597C17.534 12.7133 17.65 12.7269 18.6259 12.7133L19.5336 12.703L19.6837 12.6007C20.1546 12.2697 20.0864 11.5565 19.5677 11.3381C19.3834 11.2631 17.7046 11.2631 17.5272 11.3415Z" fill="#363062"/>
<path d="M7.54283 15.4841C7.33126 15.5899 6.21886 16.7296 6.16427 16.8968C6.09602 17.1083 6.13355 17.4052 6.25298 17.5724C6.4509 17.8556 6.85355 17.958 7.17089 17.8044C7.38245 17.7021 8.49485 16.5658 8.55286 16.3917C8.62111 16.1802 8.58357 15.8833 8.46414 15.7161C8.26623 15.4329 7.85676 15.3305 7.54283 15.4841Z" fill="#363062"/>
<path d="M15.7835 15.4943C15.5651 15.6103 15.4354 15.8116 15.4184 16.0607C15.3945 16.4054 15.432 16.4634 16.0701 17.1151C16.6946 17.743 16.8754 17.8727 17.1313 17.8727C17.2781 17.8727 17.5306 17.7737 17.6432 17.6747C17.7455 17.586 17.8684 17.2892 17.8684 17.139C17.865 16.8831 17.7592 16.7261 17.1586 16.1222C16.8208 15.7843 16.5342 15.5216 16.4489 15.4841C16.2544 15.3885 15.978 15.3919 15.7835 15.4943Z" fill="#363062"/>
<path d="M11.8286 17.1185C11.5761 17.2004 11.4226 17.3335 11.3339 17.5383C11.2588 17.7259 11.2588 19.3843 11.3339 19.572C11.5523 20.0906 12.2654 20.1589 12.5964 19.688L12.6988 19.5378L12.709 18.6302C12.7227 17.6543 12.709 17.5383 12.5555 17.3608C12.3917 17.1663 12.0402 17.0503 11.8286 17.1185Z" fill="#363062"/>
</svg>
